<svg viewBox="0 0 16 16" fill="none" xmlns="http://www.w3.org/2000/svg" width="1em" height="1em" class="">
            <path d="M15.6927 9.15792L15.8569 8.73103C16.3831 7.07293 15.3925 6.07857 13.9567 4.50652C12.7911 3.23099 11.3662 1.88559 10.6733 1.23802C8.96234 -0.363853 6.25503 -1.07703 9.67106 3.32812C13.9868 8.89207 9.82114 12.6241 9.82114 12.6241C6.05659 17.2704 9.06156 17.1519 13.6124 12.0745C14.6838 10.8808 15.345 9.94437 15.6927 9.15792Z" fill="#FF4A11"></path>
            <path d="M6.13496 4.953C8.66468 8.60152 6.22668 11.0469 6.22668 11.0469C4.02548 14.0913 5.78561 14.0147 8.44706 10.6882C10.6049 7.9923 9.92954 7.30043 8.6455 5.72752C7.96263 4.8908 7.12717 4.00892 6.72112 3.58374C5.71807 2.53315 4.13387 2.06452 6.13496 4.953Z" fill="#FF4A11"></path>
            <path d="M1.17392 6.50716C4.26728 8.32375 1.2573 9.55583 1.2573 9.55583C-1.46502 11.087 0.699496 11.041 3.98963 9.36752C6.65608 8.01104 5.82813 7.66766 4.25644 6.88462C3.42098 6.46882 2.39876 6.03086 1.90182 5.81955C0.673648 5.29723 -1.27325 5.06973 1.17392 6.50716Z" fill="#FF4A11"></path>
</svg>